<?xml version="1.0" standalone="no"?>
<!DOCTYPE svg PUBLIC "-//W3C//DTD SVG 20010904//EN"
 "http://www.w3.org/TR/2001/REC-SVG-20010904/DTD/svg10.dtd">
<svg version="1.0" xmlns="http://www.w3.org/2000/svg"
 width="656.000000pt" height="656.000000pt" viewBox="0 0 656.000000 656.000000"
 preserveAspectRatio="xMidYMid meet">
<metadata>
Created by potrace 1.11, written by Peter Selinger 2001-2013
</metadata>
<g transform="translate(0.000000,656.000000) scale(0.100000,-0.100000)"
fill="#000000" stroke="none">
<path d="M3044 5880 c-12 -4 -52 -28 -90 -52 -58 -37 -161 -91 -249 -129 -28
-13 -196 -67 -226 -73 -13 -3 -44 -10 -69 -17 -65 -16 -82 -19 -112 -24 -15
-2 -35 -6 -45 -9 -10 -3 -38 -8 -63 -11 -25 -3 -52 -8 -60 -10 -8 -2 -35 -6
-60 -9 -25 -3 -54 -7 -65 -10 -36 -7 -109 -16 -170 -21 -33 -3 -74 -7 -90 -10
-17 -2 -64 -7 -105 -10 -41 -3 -91 -8 -110 -10 -19 -2 -78 -7 -130 -11 -52 -3
-111 -7 -130 -9 -178 -18 -677 -25 -785 -12 -27 4 -70 9 -95 11 -25 3 -61 8
-80 11 -59 11 -108 12 -122 4 -14 -9 -20 -280 -7 -378 4 -31 10 -78 12 -106 3
-27 8 -63 11 -80 13 -64 17 -81 21 -105 6 -32 10 -47 36 -150 11 -47 23 -92
25 -100 2 -8 13 -49 24 -90 11 -41 23 -84 25 -95 3 -11 7 -29 10 -40 64 -256
96 -388 101 -420 3 -22 7 -42 9 -45 2 -3 6 -26 9 -50 7 -54 10 -71 26 -130 7
-25 13 -52 15 -60 2 -8 8 -28 15 -45 6 -16 11 -31 10 -33 -2 -3 14 -48 31 -87
4 -11 24 -60 44 -110 37 -92 87 -206 133 -305 14 -30 41 -89 60 -130 99 -215
292 -611 302 -620 3 -3 12 -18 20 -35 28 -55 85 -150 92 -153 5 -2 8 -8 8 -13
0 -19 231 -358 258 -379 4 -3 21 -23 37 -45 94 -127 326 -329 515 -450 41 -26
91 -58 110 -71 102 -67 336 -185 555 -280 52 -22 241 -82 281 -89 64 -11 159
-36 164 -44 3 -4 26 -23 51 -44 48 -39 68 -40 99 -8 40 42 142 91 221 106 25
5 170 52 204 66 17 7 32 13 35 14 3 1 18 7 33 13 16 7 30 12 31 12 2 0 28 11
57 24 30 13 57 24 61 25 4 1 53 24 108 52 55 27 103 49 105 49 21 0 441 243
550 319 33 23 71 49 85 59 14 9 30 21 36 27 6 5 26 21 44 35 81 60 234 224
290 310 8 12 20 28 25 34 34 38 208 325 258 426 10 19 42 82 72 140 30 57 55
110 55 117 0 7 5 13 10 13 6 0 10 4 10 9 0 5 25 62 56 127 77 164 106 227 144
314 18 41 42 95 53 120 12 25 21 47 22 50 0 3 22 55 48 116 26 62 47 118 47
126 0 8 4 18 9 24 18 17 95 263 107 339 3 22 15 78 26 125 10 47 21 94 23 105
2 11 13 56 24 101 12 45 23 90 25 100 2 10 21 87 41 169 21 83 39 157 40 165
2 8 4 15 5 15 1 0 3 10 6 23 2 12 25 107 50 210 26 103 49 198 51 212 8 42 11
332 4 385 l-6 50 -65 -1 c-36 0 -103 -4 -150 -8 -47 -5 -107 -10 -135 -12 -62
-6 -547 -5 -635 1 -234 15 -315 21 -315 25 0 0 -25 3 -55 4 -67 5 -141 16
-154 23 -5 4 -6 1 -2 -5 5 -9 1 -9 -17 -3 -13 5 -50 12 -83 15 -32 4 -66 8
-74 11 -8 2 -35 6 -60 9 -25 3 -56 8 -70 11 -14 3 -34 7 -45 9 -22 3 -107 19
-115 21 -8 2 -58 14 -130 31 -90 22 -97 23 -120 28 -10 3 -79 25 -152 49 -147
49 -262 101 -401 181 -140 82 -178 87 -281 42 l-51 -22 -57 29 c-63 32 -111
41 -144 27z"/>
<path d="M7 3694 c-14 -14 167 -537 229 -657 8 -16 14 -33 14 -38 0 -6 21 -54
46 -107 25 -53 47 -101 48 -107 5 -25 153 -306 195 -370 15 -22 33 -52 40 -67
8 -16 18 -28 23 -28 4 0 8 -5 8 -11 0 -13 92 -140 157 -217 132 -155 328 -347
483 -472 30 -25 61 -51 68 -58 8 -7 30 -25 50 -40 20 -15 44 -34 53 -42 34
-31 229 -170 238 -170 5 0 11 -4 13 -8 5 -12 111 -82 124 -82 7 0 14 6 17 14
4 10 -9 24 -36 40 -23 14 -76 51 -117 81 -41 30 -81 58 -88 61 -7 4 -23 15
-35 25 -52 44 -136 109 -140 109 -5 0 -46 34 -103 85 -12 12 -37 32 -55 45
-102 78 -337 313 -449 449 -19 23 -41 48 -47 56 -7 7 -13 18 -13 24 0 6 -4 11
-8 11 -14 0 -132 181 -209 320 -44 80 -143 276 -143 284 0 3 -15 37 -34 78
-61 129 -173 418 -236 611 -56 169 -73 201 -93 181z"/>
<path d="M6040 3324 c-6 -14 -10 -35 -10 -47 1 -22 1 -22 15 -2 15 19 16 19
40 -6 l25 -25 -20 -60 c-20 -58 -22 -60 -56 -61 -26 0 -34 3 -30 13 3 8 -1 14
-9 14 -13 0 -35 -50 -38 -89 -1 -12 -4 -21 -8 -21 -3 0 -11 -17 -18 -37 -7
-21 -15 -44 -17 -50 -3 -7 1 -13 9 -13 8 0 17 7 20 15 5 12 19 9 78 -15 39
-17 77 -30 83 -30 7 0 31 -9 55 -21 53 -25 72 -22 84 14 11 35 2 47 -17 22
-12 -16 -18 -18 -37 -8 -27 12 -108 43 -186 70 -30 10 -49 22 -45 28 4 5 7 16
8 23 5 28 27 42 68 41 22 -1 43 -1 46 0 3 1 50 4 105 7 55 2 104 9 108 13 11
11 -1 51 -15 51 -5 0 -35 21 -66 48 -31 26 -62 52 -69 57 -6 6 -28 23 -47 38
-21 17 -33 34 -29 43 3 8 0 14 -6 14 -6 0 -16 -12 -21 -26z m169 -152 l44 -39
-61 -2 c-34 -1 -70 -4 -81 -6 -18 -3 -18 -3 0 48 11 29 19 53 19 55 0 7 38
-20 79 -56z"/>
<path d="M5905 2868 c-46 -26 -67 -75 -54 -124 11 -40 37 -62 91 -79 39 -11
49 -11 77 2 39 19 65 74 56 120 -6 34 -55 82 -83 84 -9 0 -28 2 -42 5 -14 2
-34 -2 -45 -8z m104 -52 c44 -23 58 -65 33 -95 -29 -34 -100 -27 -146 15 -30
29 -33 59 -9 86 20 22 73 19 122 -6z"/>
<path d="M5782 2620 c-16 -39 -18 -50 -7 -50 7 0 15 5 17 12 5 14 87 -15 124
-44 40 -32 27 -88 -22 -88 -11 0 -41 11 -65 23 -24 13 -48 26 -54 28 -5 2 -10
12 -9 22 1 33 -21 17 -40 -29 -18 -43 -14 -76 5 -42 9 15 15 14 79 -13 38 -16
79 -29 92 -29 41 0 76 63 54 98 -13 21 -4 22 38 1 22 -10 45 -19 52 -19 7 0
14 -6 17 -12 2 -7 11 1 20 19 22 42 22 63 1 41 -16 -15 -21 -15 -67 3 -28 11
-56 23 -61 27 -6 4 -13 7 -16 7 -3 1 -33 13 -66 29 -50 22 -61 31 -57 47 11
40 -15 17 -35 -31z"/>
<path d="M5703 2392 c-31 -5 -66 -57 -60 -88 2 -14 0 -24 -7 -24 -14 0 -47
-58 -37 -65 5 -2 14 1 20 9 10 11 22 8 75 -18 79 -39 81 -39 115 -22 30 16 61
69 61 105 0 25 -26 39 -43 22 -8 -8 -8 -11 0 -11 18 0 21 -32 6 -62 -10 -21
-21 -28 -43 -28 -39 0 -43 10 -20 58 21 43 24 60 14 87 -8 21 -53 42 -81 37z
m57 -79 c0 -17 -30 -83 -37 -83 -3 0 -18 9 -35 21 -23 17 -29 27 -26 52 4 43
41 62 75 40 12 -8 23 -22 23 -30z"/>
<path d="M5487 2030 c-15 -21 -27 -43 -27 -49 0 -17 17 -13 24 5 5 13 14 10
53 -18 26 -18 53 -37 59 -43 12 -11 40 -30 64 -45 24 -15 8 -19 -43 -9 -26 5
-67 11 -90 14 -23 3 -51 7 -62 9 -11 2 -23 -1 -26 -7 -7 -9 66 -161 89 -185
22 -24 13 -42 -11 -22 -18 15 -81 62 -127 93 -34 24 -39 32 -29 43 7 9 8 18 3
24 -5 5 -23 -12 -43 -41 -19 -27 -30 -53 -26 -57 4 -4 12 1 18 10 10 15 15 13
56 -15 26 -18 48 -34 51 -37 3 -3 23 -18 45 -33 78 -53 78 -53 65 -76 -8 -17
-8 -21 3 -21 8 0 22 15 32 34 18 34 18 34 -10 92 -16 33 -40 76 -52 96 -30 50
-29 56 12 54 19 0 35 -4 35 -7 0 -3 6 -6 13 -6 6 0 35 -3 62 -7 85 -13 95 -13
95 -6 0 4 9 17 20 30 11 13 20 30 20 38 0 13 -3 12 -20 -3 -19 -17 -21 -16
-67 17 -26 19 -73 52 -103 73 -30 21 -56 39 -58 41 -2 1 1 11 7 23 20 36 -4
30 -32 -9z"/>
<path d="M5204 1672 c-11 -9 -25 -29 -32 -44 -6 -16 -18 -28 -27 -28 -8 0 -15
-6 -15 -14 0 -8 -7 -17 -16 -20 -8 -3 -12 -11 -9 -16 5 -8 12 -7 22 1 12 10
16 10 24 -2 5 -8 9 -11 9 -8 0 4 21 -13 46 -37 58 -56 97 -59 143 -12 37 38
47 64 31 83 -20 24 -30 17 -26 -17 4 -38 -23 -68 -59 -68 -43 0 -46 22 -9 64
39 44 44 82 14 114 -25 26 -67 28 -96 4z m63 -34 c29 -27 29 -39 -3 -77 l-26
-31 -28 22 c-36 28 -37 52 -5 83 30 30 33 31 62 3z"/>
<path d="M5027 1493 c-49 -37 -67 -91 -41 -122 23 -27 63 -27 108 0 39 23 71
19 79 -11 7 -27 -27 -53 -68 -53 -38 0 -43 -8 -20 -27 17 -14 42 -7 76 22 42
37 49 58 33 90 -18 34 -56 45 -87 25 -12 -8 -37 -18 -54 -21 -26 -6 -34 -4
-43 14 -10 19 -8 26 15 50 27 28 39 31 62 17 20 -13 27 15 8 30 -25 17 -26 17
-68 -14z"/>
<path d="M4875 1349 c-19 -17 -32 -35 -29 -40 3 -6 12 -5 20 2 12 10 18 8 29
-7 39 -51 26 -79 -29 -61 -17 5 -38 12 -46 15 -11 3 -11 6 -2 9 6 3 12 9 12
14 0 18 -26 8 -62 -24 -44 -38 -48 -50 -13 -37 17 6 39 5 70 -4 25 -8 45 -12
45 -10 0 3 9 0 21 -6 18 -10 20 -17 14 -53 -4 -23 -13 -47 -22 -54 -9 -7 -11
-13 -4 -18 12 -7 53 21 70 48 9 14 8 17 -7 17 -15 0 -18 6 -15 33 10 83 9 82
70 9 83 -97 75 -93 106 -66 33 28 34 38 4 30 -19 -4 -31 3 -58 35 -19 23 -43
51 -54 63 -11 13 -35 40 -54 60 -24 28 -30 41 -22 49 6 6 11 15 11 19 0 16
-20 7 -55 -23z"/>
</g>
</svg>
